#!OML:ASF E:/inclinewalkrobotboard/Project1/Captureday1/Session1/subject1.ASF
:FULLY-SPECIFIED
:DEGREES
163
root 0 0 0 2.846143035857939 -4.2610771103414935 2.22916720457072
lowerback 11.869223225333936 1.1632177236384393 -0.1674280825249702
upperback -4.198426275220149 1.4869074536145248 -0.8012853612076943
thorax -11.115907662912962 0.684563518382955 -1.0651676389919176
lowerneck -6.9805533875063706 1.3152556336103112 4.266936285645545
upperneck 18.966539132297047 2.7368066224668572 -8.027933134166863
head 7.090043148804214 0.9437900332953805 -3.1179258745480647
rclavicle -1.374943815694394E-15 -7.539252841039284E-16
rhumerus 17.871422105630884 13.953128748112773 -51.76409933290403
rradius 69.25607466259378
rwrist 23.339704923999243
rhand -32.95357621883358 -48.9927926391499
rfingers 7.125019999999962
rthumb -6.2207315539248835 -79.03989604325572
lclavicle 9.23864393645627E-16 1.0097998983902808E-15
lhumerus 17.77718182964604 -13.79036450837174 49.52306311917039
lradius 67.2599119254607
lwrist -18.104815898454405
lhand -43.9360759716558 -60.23330851568
lfingers 7.125019999999956
lthumb -16.769169596283316 -30.78561071728009
rfemur -24.76892608748093 1.893629845909411 19.935714479098852
rtibia 32.91172945957776
rfoot -29.523037642510836 -16.700035654958743
rtoes -20.501285404786397
lfemur -21.725826729792878 0.3974572343088848 -16.00944312000414
ltibia 31.558819299119136
lfoot -29.306565551763036 6.95211347004468
ltoes -19.06853867992188
164
root 0 0 0 2.869142109193431 -4.157364559435968 1.8980783364069076
lowerback 11.81859996496923 1.1152305940033924 0.08962086444661965
upperback -4.203526196643371 1.4600695502218168 -0.6972278351368008
thorax -11.08046513522941 0.6634959970636243 -1.0892972263886056
lowerneck -7.023292466141878 1.2440721879467433 4.285655052180988
upperneck 19.331777092833455 2.6439617898299987 -8.102296422187372
head 7.221733850588784 0.8971184605603765 -3.1610739986576624
rclavicle -5.552542422605384E-16 -1.4199390040384051E-15
rhumerus 17.01652288847611 13.110290158545544 -51.75610495288936
rradius 68.59582947353329
rwrist 23.497355419708985
rhand -32.78102666404303 -48.37519894903837
rfingers 7.125019999999958
rthumb -6.041704301621024 -78.3624269421182
lclavicle 1.3206966295717437E-15 6.188890939121552E-16
lhumerus 17.44811282768073 -13.594126400753819 49.715813670977624
lradius 66.9257752230853
lwrist -17.990025374203846
lhand -43.80266922616216 -59.705427572549716
lfingers 7.125019999999952
lthumb -16.645080394387364 -30.279360286213215
rfemur -21.962738637022294 3.2284770370139326 20.72079480278924
rtibia 26.462727261164588
rfoot -27.414969943885982 -15.511230366056184
rtoes -21.487825845947757
lfemur -21.92631365450753 0.05168968038895022 -14.461077395981086
ltibia 33.493545382672885
lfoot -22.903910021267734 4.1182139045648505
ltoes -19.011181068787458
165
root 0 0 0 2.6916062936138703 -4.146069587176647 2.392127103156159
lowerback 11.824358656422078 1.1093940515727887 -0.3205052330008169
upperback -4.212892606067023 1.393387455800533 -0.8196352295510237
thorax -11.11061994482703 0.6424963240262596 -0.9819685306705483
lowerneck -6.9164379417332515 1.289111710004213 4.281076329462609
upperneck 19.42557268728552 2.7041838418879065 -8.11157456863408
head 7.235142399173912 0.9201586581966309 -3.1545106655374617
rclavicle -6.847595513990316E-16 -8.665428982149935E-16
rhumerus 16.811911989125008 12.533801379060291 -50.93391709572886
rradius 68.40315564412651
rwrist 24.274722522355134
rhand -32.911141749094966 -49.030695999469536
rfingers 7.125019999999962
rthumb -6.174992038431611 -79.12197944089779
lclavicle 1.1358996473090614E-15 7.581021163545581E-16
lhumerus 17.30195073174645 -13.010050931702722 49.3376711616269
lradius 66.71586329591906
lwrist -18.49753998890349
lhand -43.87278965081116 -60.650755508896154
lfingers 7.125019999999955
lthumb -16.711151140560947 -31.18804829697555
rfemur -25.88762251195607 0.7718761767031834 17.689522806809055
rtibia 41.22538433627958
rfoot -21.27890512940819 -14.945283224753096
rtoes -19.444839641581574
lfemur -18.1920884979234 0.1407163740154621 -15.318914933533494
ltibia 35.60128806474458
lfoot -21.78768605795971 2.065502012099425
ltoes -20.32605251504946
166
root 0 0 0 2.4836458519086806 -4.101746249486869 2.515664720213649
lowerback 11.878556773507832 1.0783490824392343 -0.4285399419140903
upperback -4.203040693943202 1.3384876523339186 -0.8323476201545982
thorax -11.14246593512567 0.6192826055378533 -0.9251125248005232
lowerneck -6.883815672680808 1.3032147237111162 4.292816713426819
upperneck 19.5555632569357 2.72654608429894 -8.157705396683639
head 7.2738745817250825 0.9260969990489917 -3.170617707325782
rclavicle -4.1919605750124335E-16 -1.1519035581636113E-15
rhumerus 16.379485142891482 11.951975985220026 -50.58529692808543
rradius 68.05530798076542
rwrist 24.667398001191064
rhand -32.89623870690485 -49.074006024085996
rfingers 7.125019999999963
rthumb -6.159231197825751 -79.18409403716959
lclavicle 1.1181962141482515E-15 3.6021886750754513E-16
lhumerus 17.202480792069146 -12.692819665247349 49.20061734892581
lradius 66.53879437841974
lwrist -18.704929109719757
lhand -43.89170255121087 -61.00225212848368
lfingers 7.125019999999955
lthumb -16.731037929121342 -31.545254994661693
rfemur -28.041941395537748 -0.5120369473831752 16.078878917454873
rtibia 49.77429086303747
rfoot -16.02093662746842 -14.063131250299595
rtoes -16.889820715383255
lfemur -17.17586911644466 1.2063259171207985 -14.975313346419927
ltibia 44.80764061875555
lfoot -17.947056294673697 -1.6741843590836607
ltoes -20.92074737748556
167
root 0 0 0 2.1588457650335195 -3.9894497650835143 2.719199978821277
lowerback 12.003181395067415 1.0024246057798127 -0.623843268386319
upperback -4.166662640623458 1.2145493961138494 -0.8348273031291816
thorax -11.196074946270903 0.5652024041469572 -0.7983585703926881
lowerneck -6.894221878947325 1.3418503193489306 4.30496174553099
upperneck 19.621822999560436 2.7856764603249458 -8.21462711821107
head 7.297811031077061 0.9477503025594759 -3.1872644518808793
rclavicle -3.4192334713454207E-16 -1.5395946592433315E-15
rhumerus 16.021918260955744 11.442473993650667 -50.24500367463442
rradius 67.76744907605026
rwrist 25.043289936251455
rhand -32.89546325320525 -49.156173847313276
rfingers 7.125019999999963
rthumb -6.157596717845328 -79.28910034716216
lclavicle 9.21627382601503E-16 -7.434707358379988E-18
lhumerus 17.22219201805028 -12.552819490416068 49.09105933254327
lradius 66.50608748883269
lwrist -18.836421318220594
lhand -43.93055866758624 -61.30320977995852
lfingers 7.125019999999955
lthumb -16.769879023853026 -31.850843195723943
rfemur -30.94871702209108 -1.6798374586761398 14.837694987662223
rtibia 57.188355691233205
rfoot -11.62834405777698 -13.292659536393282
rtoes -13.440232878714085
lfemur -16.450687363285375 2.709589339549376 -14.968671765611214
ltibia 56.21722023555431
lfoot -13.430246980532642 -5.940913610726861
ltoes -20.05124507472057
